<svg width="54" height="82" viewBox="0 0 54 82" fill="none" xmlns="http://www.w3.org/2000/svg">
<path d="M0 27.1157C0 42.0665 12.1059 54.2289 27.0013 54.2289C41.8915 54.2289 54 42.0717 54 27.1157C54 12.1572 41.8864 0 27.0013 0C12.1136 0 0 12.1572 0 27.1157ZM2.75602 27.1157C2.75602 13.6859 13.6307 2.76512 27.0013 2.76512C40.3693 2.76512 51.244 13.6885 51.244 27.1157C51.244 40.5404 40.3693 51.4612 27.0013 51.4612C13.6307 51.4612 2.75345 40.5404 2.75345 27.1157H2.75602Z" fill="white"/>
<path d="M27.0014 52.7287C41.0873 52.7287 52.5062 41.2614 52.5062 27.1158C52.5062 12.9702 41.0873 1.50293 27.0014 1.50293C12.9155 1.50293 1.49658 12.9702 1.49658 27.1158C1.49658 41.2614 12.9155 52.7287 27.0014 52.7287Z" fill="#161082"/>
<path opacity="0.5" d="M27.0014 52.7287C41.0873 52.7287 52.5062 41.2614 52.5062 27.1158C52.5062 12.9702 41.0873 1.50293 27.0014 1.50293C12.9155 1.50293 1.49658 12.9702 1.49658 27.1158C1.49658 41.2614 12.9155 52.7287 27.0014 52.7287Z" fill="url(#paint0_radial_199_170)"/>
<path d="M27.0014 52.7287C41.0873 52.7287 52.5062 41.2614 52.5062 27.1158C52.5062 12.9702 41.0873 1.50293 27.0014 1.50293C12.9155 1.50293 1.49658 12.9702 1.49658 27.1158C1.49658 41.2614 12.9155 52.7287 27.0014 52.7287Z" fill="#242484"/>
<path d="M19.9927 27.3429C20.1061 26.6549 20.5671 26.1893 21.2548 26.1893C21.9451 26.1893 22.4036 26.7713 22.4036 27.3429H19.9927ZM24.2427 28.3828C24.356 26.4221 23.3231 24.8054 21.2548 24.8054C19.5291 24.8054 18.1537 26.0729 18.1537 27.9249C18.1537 29.883 19.4158 31.0367 21.3682 31.0367C22.6329 31.0367 23.8975 30.4572 24.2427 29.0786H22.5169C22.2903 29.5364 21.9451 29.7666 21.4867 29.7666C20.6805 29.7666 20.2194 29.1898 20.2194 28.3828H24.2427ZM48.0243 30.4598C49.5182 30.4598 50.0926 29.1924 50.0926 27.9223C50.0926 26.6523 49.5157 25.3823 48.0243 25.3823C46.6463 25.3823 46.0719 26.6497 46.0719 27.9223C46.0719 29.195 46.6463 30.4598 48.0243 30.4598ZM50.7829 30.9203H50.0926V29.7666C49.7475 30.5762 48.8305 31.0367 48.0243 31.0367C46.2986 31.0367 45.3842 29.5364 45.3842 27.9223C45.3842 26.3057 46.1878 24.8054 48.0243 24.8054C48.9439 24.8054 49.7475 25.271 50.0926 26.0729V22.731H50.7803V30.9228M24.5878 25.0382H25.3915L26.8854 30.1184L28.2634 25.0382H29.067L30.4476 30.1184L31.9415 25.0382H32.8585L31.022 30.9228H30.2158L28.7244 25.9643L27.3439 30.9228H26.5402L24.5878 25.0382ZM38.8367 27.9249C38.8367 29.6554 37.9146 31.0392 36.0755 31.0392C34.2391 31.0392 33.3195 29.6554 33.3195 27.9249C33.3195 26.1945 34.2391 24.808 36.0755 24.808C37.8013 24.9244 38.8316 26.3083 38.8316 27.9275M34.0072 27.9275C34.0072 29.195 34.6975 30.4624 36.0755 30.4624C37.4561 30.4624 38.1439 29.195 38.1439 27.9249C38.1439 26.6549 37.4561 25.3848 36.0755 25.3848C34.6975 25.5012 34.0072 26.7687 34.0072 27.9249M39.867 25.0382H40.5573V26.4247C40.7162 25.975 41.013 25.5876 41.405 25.318C41.797 25.0484 42.264 24.9106 42.7389 24.9244V25.6151C41.4768 25.5012 40.5573 26.5411 40.5573 27.6947V30.809H39.8696V25.0382M43.5451 22.8448H44.3488V30.9203H43.6585V22.8448H43.5451ZM5.85976 27.9223C5.85976 27.2317 6.09157 26.3057 7.00853 26.3057C7.92549 26.3057 8.1573 27.2291 8.1573 27.9223C8.1573 28.6156 7.92549 29.5364 7.00853 29.5364C6.09157 29.5364 5.85976 28.7294 5.85976 27.9223ZM3.90736 27.9223C3.90736 29.6528 5.17204 31.0367 7.00853 31.0367C8.84759 31.0367 10.1123 29.7692 10.1123 27.9223C10.1123 26.1893 8.84759 24.8054 7.00595 24.8054C5.16946 24.9218 3.90479 26.1893 3.90479 27.9249M11.1451 25.0357H12.9842V25.8453C13.3268 25.2659 14.133 24.9218 14.8207 24.9218C16.7731 24.9218 16.889 26.3057 16.889 27.2291V30.9203H14.9392V28.1526C14.9392 27.3429 15.0499 26.5385 14.0171 26.5385C13.3293 26.5385 12.9842 27.1153 12.9842 27.8059V31.0392H11.1426V25.0305" fill="white"/>
<path d="M27 62.3579C34.4119 62.3579 41.1 63.4792 45.917 65.2759C48.3274 66.175 50.2437 67.2342 51.5479 68.3843C52.8525 69.5349 53.5 70.7342 53.5 71.9292C53.4999 73.1242 52.8526 74.3235 51.5479 75.4741C50.2437 76.6242 48.3274 77.6825 45.917 78.5815C41.1 80.3783 34.412 81.5005 27 81.5005C19.588 81.5005 12.9 80.3783 8.08301 78.5815C5.67262 77.6825 3.75631 76.6242 2.45215 75.4741C1.14744 74.3235 0.500076 73.1242 0.5 71.9292C0.5 70.7342 1.1475 69.5349 2.45215 68.3843C3.75631 67.2342 5.67262 66.175 8.08301 65.2759C12.9 63.4792 19.5881 62.3579 27 62.3579Z" fill="#0066B6" stroke="white"/>
<defs>
<radialGradient id="paint0_radial_199_170" cx="0" cy="0" r="1" gradientUnits="userSpaceOnUse" gradientTransform="translate(1206.96 917.164) scale(8300.54 8335.72)">
<stop offset="1" stop-color="#161082" stop-opacity="0.8"/>
</radialGradient>
</defs>
</svg>
