<svg width="91" height="30" viewBox="0 0 91 30" fill="none" xmlns="http://www.w3.org/2000/svg">
<path d="M45.066 0.522363L39.1121 29.1217H31.9107L37.8651 0.522363H45.066ZM75.3627 18.9898L79.1538 8.24927L81.3345 18.9898H75.3627ZM83.401 29.1217H90.0599L84.2422 0.522363H78.0995C76.7151 0.522363 75.5488 1.34719 75.0322 2.61889L64.2262 29.1217H71.789L73.2908 24.8508H82.5284L83.401 29.1217ZM64.6011 19.7846C64.633 12.2372 54.4465 11.8187 54.5141 8.44659C54.5363 7.42167 55.4873 6.33005 57.5674 6.05103C58.599 5.9143 61.444 5.80425 64.6698 7.33107L65.9314 1.26382C64.1986 0.620186 61.9693 -0.000100168 59.1957 -0.000100168C52.0765 -0.000100168 47.0682 3.88503 47.0281 9.45316C46.9827 13.5706 50.6056 15.8661 53.3294 17.2373C56.1381 18.6391 57.0794 19.5384 57.0659 20.7906C57.0464 22.7093 54.8257 23.5586 52.7592 23.5908C49.1358 23.6486 47.0368 22.5848 45.363 21.7833L44.056 28.0529C45.7412 28.8455 48.8464 29.5352 52.0619 29.5708C59.6301 29.5708 64.5789 25.7307 64.6011 19.7846ZM34.7762 0.522363L23.1079 29.1217H15.4964L9.75402 6.29726C9.40617 4.89383 9.10269 4.37804 8.044 3.78498C6.31235 2.81843 3.4533 1.91467 0.939941 1.35219L1.10981 0.522363H13.3639C14.9246 0.522363 16.329 1.58952 16.686 3.43649L19.7193 19.9875L27.2107 0.522363H34.7762Z" fill="black"/>
</svg>
