<svg width="91" height="30" viewBox="0 0 91 30" fill="none" xmlns="http://www.w3.org/2000/svg">
<path d="M45.066 0.739648L39.1121 29.339H31.9107L37.8651 0.739648H45.066ZM75.3627 19.2071L79.1538 8.46656L81.3345 19.2071H75.3627ZM83.401 29.339H90.0599L84.2422 0.739648H78.0995C76.7151 0.739648 75.5488 1.56447 75.0322 2.83617L64.2262 29.339H71.789L73.2908 25.0681H82.5284L83.401 29.339ZM64.6011 20.0019C64.633 12.4545 54.4465 12.036 54.5141 8.66387C54.5363 7.63895 55.4873 6.54733 57.5674 6.26832C58.599 6.13159 61.444 6.02154 64.6698 7.54835L65.9314 1.4811C64.1986 0.837471 61.9693 0.217185 59.1957 0.217185C52.0765 0.217185 47.0682 4.10231 47.0281 9.67045C46.9827 13.7879 50.6056 16.0834 53.3294 17.4546C56.1381 18.8564 57.0794 19.7557 57.0659 21.0079C57.0464 22.9266 54.8257 23.7759 52.7592 23.8081C49.1358 23.8659 47.0368 22.8021 45.363 22.0006L44.056 28.2702C45.7412 29.0628 48.8464 29.7525 52.0619 29.7881C59.6301 29.7881 64.5789 25.948 64.6011 20.0019ZM34.7762 0.739648L23.1079 29.339H15.4964L9.75402 6.51454C9.40617 5.11112 9.10269 4.59532 8.044 4.00227C6.31235 3.03571 3.4533 2.13196 0.939941 1.56948L1.10981 0.739648H13.3639C14.9246 0.739648 16.329 1.80681 16.686 3.65377L19.7193 20.2048L27.2107 0.739648H34.7762Z" fill="white"/>
</svg>
