<svg width="63" height="63" viewBox="0 0 63 63" fill="none" xmlns="http://www.w3.org/2000/svg">
<path d="M0.5 0.439941V62.4399H62.5V0.439941H0.5Z" fill="white"/>
<path d="M51.4429 15.651L53.4269 10.257H62.5V0.439941H0.5V62.4399H62.5V52.6439H53.944L50.782 48.945L47.496 52.6439H23.192V32.949H15.1729L25.1971 10.257H34.9509L37.3069 15.403V10.257H49.418L51.4429 15.651ZM44.6031 19.2259L44.582 17.0559L45.4091 19.2259L49.4391 29.9929H53.448L57.4991 19.2259L58.284 17.077V29.9929H62.5V13.4599H55.494L52.3109 21.851L51.464 24.1239L50.596 21.851L47.3931 13.4599H40.3871V29.9929H44.6031V19.2259ZM35.53 29.9929H40.3871L33.112 13.4599H27.47L20.154 29.9929H24.9491L26.23 26.811H34.2491L35.53 29.9929ZM29.4131 19.061L30.2389 16.9939L31.066 19.061L32.7809 23.2349H27.6969L29.4131 19.061ZM26.5809 32.9689V49.441H40.3871V45.8649H30.7969V42.993H40.2011V39.4379H30.7969V36.545H40.3871V32.9689H26.5809ZM55.742 49.441H61.2191L53.4889 41.1739L61.2191 32.9689H55.8251L50.844 38.3219L45.884 32.9689H40.3871L48.0949 41.2359L40.3871 49.441H45.7191L50.7411 44.0669L55.742 49.441ZM57.8289 41.1529L62.5 45.907V36.4619L57.8289 41.1529Z" fill="#006FCF"/>
</svg>
