<svg width="85" height="53" viewBox="0 0 85 53" fill="none" xmlns="http://www.w3.org/2000/svg">
<path d="M53.8565 6.10938H31.144V46.8211H53.8565V6.10938Z" fill="#FF5F00"/>
<path d="M32.5858 26.4652C32.5858 18.1934 36.4794 10.8566 42.4639 6.10932C38.0657 2.65674 32.5137 0.570801 26.4571 0.570801C12.1086 0.570801 0.5 12.1513 0.5 26.4652C0.5 40.779 12.1086 52.3596 26.4571 52.3596C32.5137 52.3596 38.0657 50.2736 42.4639 46.8211C36.4794 42.1457 32.5858 34.737 32.5858 26.4652Z" fill="#EB001B"/>
<path d="M84.5001 26.4652C84.5001 40.779 72.8915 52.3596 58.543 52.3596C52.4863 52.3596 46.9344 50.2736 42.5361 46.8211C48.5928 42.0737 52.4142 34.737 52.4142 26.4652C52.4142 18.1934 48.5207 10.8566 42.5361 6.10932C46.9344 2.65674 52.4863 0.570801 58.543 0.570801C72.8915 0.570801 84.5001 12.2233 84.5001 26.4652Z" fill="#F79E1B"/>
</svg>
