<svg width="91" height="50" viewBox="0 0 91 50" fill="none" xmlns="http://www.w3.org/2000/svg">
<path d="M45.066 1.09316L39.1121 29.6925H31.9107L37.8651 1.09316H45.066ZM75.3627 19.5606L79.1538 8.82007L81.3345 19.5606H75.3627ZM83.401 29.6925H90.0599L84.2422 1.09316H78.0995C76.7151 1.09316 75.5488 1.91799 75.0322 3.18969L64.2262 29.6925H71.789L73.2908 25.4216H82.5284L83.401 29.6925ZM64.6011 20.3554C64.633 12.808 54.4465 12.3895 54.5141 9.01739C54.5363 7.99247 55.4873 6.90085 57.5674 6.62183C58.599 6.4851 61.444 6.37505 64.6698 7.90187L65.9314 1.83462C64.1986 1.19099 61.9693 0.570701 59.1957 0.570701C52.0765 0.570701 47.0682 4.45583 47.0281 10.024C46.9827 14.1414 50.6056 16.4369 53.3294 17.8081C56.1381 19.2099 57.0794 20.1092 57.0659 21.3614C57.0464 23.2801 54.8257 24.1294 52.7592 24.1616C49.1358 24.2194 47.0368 23.1556 45.363 22.3541L44.056 28.6237C45.7412 29.4163 48.8464 30.106 52.0619 30.1416C59.6301 30.1416 64.5789 26.3015 64.6011 20.3554ZM34.7762 1.09316L23.1079 29.6925H15.4964L9.75402 6.86806C9.40617 5.46463 9.10269 4.94884 8.044 4.35579C6.31235 3.38923 3.4533 2.48547 0.939941 1.92299L1.10981 1.09316H13.3639C14.9246 1.09316 16.329 2.16032 16.686 4.00729L19.7193 20.5583L27.2107 1.09316H34.7762Z" fill="black"/>
<path d="M24.1797 36.5441C24.8016 36.4405 25.5791 36.3628 26.6158 36.3628C27.8598 36.3628 28.7669 36.6479 29.3629 37.1662C29.9071 37.6327 30.2182 38.3325 30.2182 39.2136C30.2182 40.0948 29.9591 40.7944 29.4666 41.3128C28.7928 42.0125 27.7043 42.3754 26.4862 42.3754C26.0974 42.3754 25.7606 42.3494 25.4755 42.2976V46.211H24.2056V36.5441H24.1797ZM25.4496 41.2609C25.7347 41.3387 26.0715 41.3647 26.4862 41.3647C28.0153 41.3647 28.9483 40.6131 28.9483 39.2654C28.9483 37.9696 28.0412 37.3476 26.6417 37.3476C26.0974 37.3476 25.6568 37.3994 25.4496 37.4512V41.2609Z" fill="black"/>
<path d="M37.5266 44.293C37.5266 45.0187 37.5526 45.6666 37.5785 46.2109H36.4382L36.3605 45.0705H36.3346C35.9976 45.6406 35.272 46.3663 34.002 46.3663C32.8876 46.3663 31.5659 45.7444 31.5659 43.2823V39.1875H32.8358V43.0749C32.8358 44.4226 33.2505 45.3037 34.3908 45.3037C35.246 45.3037 35.8421 44.7077 36.0754 44.1376C36.1531 43.9561 36.179 43.7229 36.179 43.4896V39.1875H37.4489V44.293H37.5266Z" fill="black"/>
<path d="M39.6514 41.3902C39.6514 40.5608 39.6255 39.8611 39.5996 39.1873H40.714L40.7658 40.5608H40.8176C41.1287 39.6279 41.9062 39.0317 42.7614 39.0317C42.9169 39.0317 43.0205 39.0576 43.1242 39.0837V40.2757C42.9946 40.2498 42.8651 40.2239 42.6836 40.2239C41.7765 40.2239 41.1546 40.8978 40.9731 41.8567C40.9472 42.0381 40.9213 42.2454 40.9213 42.4528V46.1847H39.6514V41.3902Z" fill="black"/>
<path d="M49.2409 45.9518C48.9039 46.1333 48.1784 46.3665 47.2194 46.3665C45.0942 46.3665 43.7207 44.9411 43.7207 42.7901C43.7207 40.639 45.198 39.0581 47.5045 39.0581C48.2561 39.0581 48.9299 39.2396 49.2668 39.4209L48.9818 40.4057C48.6708 40.2243 48.2043 40.0688 47.5045 40.0688C45.8977 40.0688 45.0165 41.261 45.0165 42.7123C45.0165 44.3451 46.0531 45.3299 47.4527 45.3299C48.1784 45.3299 48.6448 45.1484 49.0077 44.9929L49.2409 45.9518Z" fill="black"/>
<path d="M50.7437 35.9219H52.0136V40.3017H52.0395C52.2468 39.9388 52.5578 39.6278 52.9465 39.3946C53.3353 39.1872 53.7759 39.0318 54.2424 39.0318C55.1753 39.0318 56.7044 39.6019 56.7044 42.0381V46.2106H55.4345V42.1676C55.4345 41.0274 55.0199 40.0685 53.8018 40.0685C52.9725 40.0685 52.3245 40.6386 52.0913 41.3384C52.0136 41.5198 52.0136 41.7011 52.0136 41.9603V46.2106H50.7437V35.9219Z" fill="black"/>
<path d="M62.6911 46.2112L62.5874 45.3299H62.5355C62.1468 45.8742 61.3953 46.3666 60.3845 46.3666C58.9591 46.3666 58.2334 45.3558 58.2334 44.3451C58.2334 42.6346 59.7366 41.7276 62.4578 41.7276V41.5721C62.4578 41.0019 62.3023 39.9394 60.851 39.9394C60.2031 39.9394 59.5033 40.1467 59.0109 40.4577L58.7258 39.6284C59.2961 39.2396 60.1513 39.0063 61.0324 39.0063C63.1835 39.0063 63.7018 40.4836 63.7018 41.883V44.5007C63.7018 45.1226 63.7277 45.6928 63.8054 46.1853H62.6911V46.2112ZM62.5096 42.6346C61.1102 42.6087 59.5292 42.842 59.5292 44.2156C59.5292 45.0449 60.0735 45.4337 60.7214 45.4337C61.6285 45.4337 62.2245 44.8634 62.4319 44.2674C62.4837 44.1378 62.5096 43.9823 62.5096 43.8527V42.6346Z" fill="black"/>
<path d="M65.62 44.9148C66.0087 45.174 66.6566 45.4332 67.3045 45.4332C68.2375 45.4332 68.6781 44.9667 68.6781 44.3965C68.6781 43.7745 68.3152 43.4635 67.3823 43.1006C66.1124 42.6601 65.5162 41.9603 65.5162 41.1051C65.5162 39.9648 66.4234 39.0317 67.9524 39.0317C68.6522 39.0317 69.3 39.2391 69.6888 39.4723L69.3777 40.4054C69.0927 40.2239 68.6003 39.9907 67.9524 39.9907C67.2008 39.9907 66.7861 40.4313 66.7861 40.9496C66.7861 41.5197 67.2008 41.7789 68.1339 42.1418C69.3518 42.6083 69.9739 43.2043 69.9739 44.2669C69.9739 45.5109 69.015 46.3661 67.3563 46.3661C66.5788 46.3661 65.8791 46.1847 65.3867 45.8997L65.62 44.9148Z" fill="black"/>
<path d="M72.954 37.2179C72.9799 37.6585 72.6429 37.9954 72.1505 37.9954C71.71 37.9954 71.373 37.6585 71.373 37.2179C71.373 36.7773 71.71 36.4146 72.1766 36.4146C72.6689 36.4146 72.954 36.7773 72.954 37.2179ZM71.5286 46.211V39.1876H72.7985V46.211H71.5286Z" fill="black"/>
<path d="M74.9498 41.1055C74.9498 40.3798 74.9239 39.7838 74.8979 39.2135H76.0383L76.116 40.3798H76.1419C76.4789 39.7059 77.3082 39.0581 78.4744 39.0581C79.4592 39.0581 80.9624 39.6282 80.9624 42.0385V46.2369H79.6925V42.1939C79.6925 41.0537 79.2779 40.1207 78.0598 40.1207C77.2304 40.1207 76.5567 40.7167 76.3493 41.4165C76.2975 41.572 76.2716 41.8053 76.2716 42.0126V46.2369H75.0017V41.1055H74.9498Z" fill="black"/>
<path d="M89.0481 39.1877C89.0222 39.706 88.9963 40.2504 88.9963 41.1056V45.1744C88.9963 46.7812 88.6853 47.766 87.9855 48.3881C87.3116 49.0359 86.3268 49.2174 85.4198 49.2174C84.5905 49.2174 83.6575 49.01 83.0874 48.6473L83.3983 47.6624C83.8648 47.9475 84.5905 48.2066 85.4716 48.2066C86.7674 48.2066 87.7264 47.5328 87.7264 45.7446V44.9671H87.7004C87.3116 45.615 86.5601 46.1334 85.4716 46.1334C83.7352 46.1334 82.4912 44.6561 82.4912 42.7123C82.4912 40.3281 84.0463 38.9805 85.6531 38.9805C86.8712 38.9805 87.5449 39.6283 87.856 40.1984H87.8819L87.9337 39.1359H89.0481V39.1877ZM87.7264 41.9608C87.7264 41.7535 87.7004 41.5462 87.6486 41.3906C87.4154 40.6391 86.7933 40.043 85.8604 40.043C84.6423 40.043 83.7611 41.0797 83.7611 42.6864C83.7611 44.0601 84.4609 45.2003 85.8345 45.2003C86.612 45.2003 87.3377 44.7079 87.5968 43.9045C87.6745 43.6972 87.7004 43.438 87.7004 43.2307V41.9608H87.7264Z" fill="black"/>
</svg>
