<svg width="204" height="117" viewBox="0 0 204 117" fill="none" xmlns="http://www.w3.org/2000/svg">
<path d="M184.713 25.3643H202.107V90.9512H184.71L184.713 25.3643ZM166.246 91.9043C156.834 91.9043 150.162 87.0791 147.958 78.501H147.601C144.622 86.7217 136.759 91.9043 127.228 91.9043C114.36 91.9043 105.723 83.1475 105.723 69.9229L105.723 25.3643H123.117L123.117 65.5742C123.117 73.2588 126.989 77.4883 134.078 77.4883C140.929 77.4883 145.516 72.4844 145.516 65.0381V25.3643H162.314V66.2295C162.314 73.2588 166.365 77.4883 173.097 77.4883C176.632 77.4883 179.612 76.0924 181.668 73.718C181.76 85.8422 176.62 91.9043 166.246 91.9043Z" fill="black"/>
<path d="M193.398 18.1689C188.275 18.1689 184.046 14.2373 184.046 9.05469C184.046 3.87207 188.275 0 193.398 0C198.581 0 202.811 3.87207 202.811 9.05469C202.811 14.2373 198.581 18.1689 193.398 18.1689Z" fill="black"/>
<path d="M1.61523 90.9058L1.61523 25.3188L18.4141 25.3188L18.4141 37.2329H18.7715C21.5713 29.3101 28.7197 24.3657 37.4766 24.3657C46.8887 24.3657 53.5605 29.1909 55.7646 37.769H56.1221C59.1006 29.5483 66.9639 24.3657 76.4951 24.3657C89.3623 24.3657 98 33.1226 98 46.3472L98 90.9058L80.6055 90.9058L80.6055 50.6958C80.6055 43.0112 76.7334 38.7817 69.6445 38.7817C62.7939 38.7817 58.207 43.7856 58.207 51.2319L58.207 90.9058H41.4082L41.4082 50.0405C41.4082 43.0112 37.3574 38.7817 30.626 38.7817C23.7754 38.7817 19.0098 44.0239 19.0098 51.4702L19.0098 90.9058H1.61523Z" fill="black"/>
<path d="M10.3242 98.1011C15.4473 98.1011 19.6768 102.033 19.6768 107.215C19.6768 112.398 15.4473 116.27 10.3242 116.27C5.1416 116.27 0.912109 112.398 0.912109 107.215C0.912109 102.033 5.1416 98.1011 10.3242 98.1011Z" fill="black"/>
</svg>
