<svg width="21" height="21" viewBox="0 0 21 21" fill="none" xmlns="http://www.w3.org/2000/svg">
<path d="M10.5 0C16.299 0 21 4.70101 21 10.5C21 16.299 16.299 21 10.5 21C4.70101 21 0 16.299 0 10.5C0 4.70101 4.70101 5.63725e-08 10.5 0ZM8.39746 3.0625C6.90095 3.0625 5.68764 4.28801 5.6875 5.7998C5.6875 6.76113 6.17799 7.60731 6.91992 8.0957C6.17807 8.58411 5.68751 9.42939 5.6875 10.3906C5.6875 11.3519 6.17808 12.1971 6.91992 12.6855C6.17802 13.1739 5.6875 14.0201 5.6875 14.9814C5.68764 16.4962 6.91593 17.7185 8.40918 17.7188C9.91634 17.7188 11.1562 16.4849 11.1562 14.9561V12.4062C11.6388 12.8547 12.2838 13.1279 12.9912 13.1279H13.04C14.5366 13.1279 15.75 11.9025 15.75 10.3906C15.75 9.4294 15.2594 8.58411 14.5176 8.0957C15.2595 7.60731 15.75 6.76113 15.75 5.7998C15.7499 4.28801 14.5366 3.0625 13.04 3.0625H8.39746ZM10.2812 13.1279V14.9561C10.2812 15.9901 9.43889 16.834 8.40918 16.834C7.39338 16.8338 6.56362 16.0015 6.56348 14.9814C6.56348 13.9601 7.38145 13.1313 8.3916 13.1279H10.2812ZM10.2812 8.53809V12.2432H8.3916C7.38145 12.2398 6.56348 11.4119 6.56348 10.3906C6.56349 9.36726 7.38446 8.53809 8.39746 8.53809H10.2812ZM13.04 8.53809C14.053 8.53809 14.874 9.36726 14.874 10.3906C14.874 11.414 14.053 12.2432 13.04 12.2432H12.9912C11.9782 12.2432 11.1562 11.414 11.1562 10.3906C11.1563 9.36726 11.9782 8.53809 12.9912 8.53809H13.04ZM10.2812 7.65332H8.39746C7.38446 7.65332 6.56348 6.82318 6.56348 5.7998C6.56362 4.77655 7.38454 3.94727 8.39746 3.94727H10.2812V7.65332ZM13.04 3.94727C14.053 3.94727 14.8739 4.77655 14.874 5.7998C14.874 6.82318 14.053 7.65332 13.04 7.65332H11.1562V3.94727H13.04Z" fill="black"/>
</svg>
