<svg width="38" height="38" viewBox="0 0 38 38" fill="none" xmlns="http://www.w3.org/2000/svg">
<path d="M25.2274 9.26582C25.2274 12.8944 18.6573 18.4995 18.6573 18.4995C18.6573 18.4995 12.0872 12.8944 12.0872 9.26582C12.0872 5.63725 15.0287 2.69572 18.6573 2.69572C22.2857 2.69572 25.2274 5.63725 25.2274 9.26582Z" fill="black"/>
<path d="M9.45397 15.4856C7.78967 13.8213 5.09133 13.8213 3.42704 15.4856C1.76275 17.1499 1.76275 19.8483 3.42704 21.5126L15.9831 34.0687C17.6474 35.733 20.3458 35.733 22.0101 34.0687C23.6744 32.4044 23.6744 29.706 22.0101 28.0417L9.45397 15.4856Z" fill="black" fill-opacity="0.55"/>
<path d="M28.5355 15.4856C30.1998 13.8213 32.8982 13.8213 34.5625 15.4856C36.2268 17.1499 36.2268 19.8483 34.5625 21.5126L22.0063 34.0687C20.3421 35.733 17.6437 35.733 15.9794 34.0687C14.3151 32.4044 14.3151 29.706 15.9794 28.0417L28.5355 15.4856Z" fill="black" fill-opacity="0.55"/>
<path fill-rule="evenodd" clip-rule="evenodd" d="M18.9993 25.0276L22.0124 28.0409C23.6768 29.7051 23.6768 32.4034 22.0124 34.0678C21.1803 34.8999 20.0899 35.316 18.9993 35.316C17.9087 35.316 16.8181 34.8999 15.986 34.0678C14.3217 32.4034 14.3217 29.7051 15.986 28.0409L18.9993 25.0276Z" fill="black"/>
</svg>
