<svg width="21" height="21" viewBox="0 0 21 21" fill="none" xmlns="http://www.w3.org/2000/svg">
<path d="M10.5 0C16.299 0 21 4.70101 21 10.5C21 16.299 16.299 21 10.5 21C4.70101 21 0 16.299 0 10.5C0 4.70101 4.70101 5.63725e-08 10.5 0ZM16.5391 8.89746C15.8938 8.25216 14.8475 8.25228 14.2021 8.89746L10.502 12.5967L6.80273 8.89746C6.15744 8.25216 5.11119 8.25229 4.46582 8.89746C3.82072 9.54284 3.82055 10.5891 4.46582 11.2344L9.31543 16.084C9.3214 16.0902 9.32691 16.0974 9.33301 16.1035C9.65566 16.426 10.0791 16.586 10.502 16.5859C10.925 16.5862 11.349 16.4262 11.6719 16.1035C11.6777 16.0976 11.6827 16.09 11.6885 16.084L16.5391 11.2344C17.1841 10.5891 17.1841 9.54278 16.5391 8.89746ZM10.3711 3.9375C8.9642 3.93769 7.82422 5.07842 7.82422 6.48535C7.82443 7.88309 10.3378 10.037 10.3711 10.0654C10.3977 10.0427 12.9187 7.88498 12.9189 6.48535C12.9189 5.07843 11.7779 3.9377 10.3711 3.9375Z" fill="black"/>
</svg>
