<?xml version="1.0" encoding="UTF-8"?>
<svg width="204px" height="117px" viewBox="0 0 204 117" version="1.1" xmlns="http://www.w3.org/2000/svg" xmlns:xlink="http://www.w3.org/1999/xlink">
    <!-- Generator: Sketch 56.3 (81716) - https://sketch.com -->
    <title>Artboard Copy</title>
    <desc>Created with Sketch.</desc>
    <g id="Artboard-Copy" stroke="none" stroke-width="1" fill="none" fill-rule="evenodd">
        <path d="M123.117055,91.9042969 L105.722524,91.9042969 L105.722524,26.3173828 L123.119813,26.3173828 L123.117055,91.9042969 Z M141.583852,25.3642578 C150.995961,25.3642578 157.667836,30.1894531 159.871938,38.7675781 L160.22936,38.7675781 C163.207875,30.546875 171.071156,25.3642578 180.602406,25.3642578 C193.469594,25.3642578 202.107289,34.1210938 202.107289,47.3457031 L202.107289,91.9042969 L184.712758,91.9042969 L184.712758,51.6943359 C184.712758,44.0097656 180.840688,39.7802734 173.75182,39.7802734 C166.901235,39.7802734 162.31432,44.7841797 162.31432,52.2304688 L162.31432,91.9042969 L145.515492,91.9042969 L145.515492,51.0390625 C145.515492,44.0097656 141.464711,39.7802734 134.733266,39.7802734 C131.19816,39.7802734 128.218252,41.1761979 126.161895,43.5505778 C126.069739,31.4263645 131.210391,25.3642578 141.583852,25.3642578 Z" id="Shape" fill="#333333" fill-rule="nonzero" transform="translate(153.914906, 58.634277) rotate(-180.000000) translate(-153.914906, -58.634277) "></path>
        <path d="M193.398305,18.1689453 C188.275258,18.1689453 184.045766,14.2373047 184.045766,9.0546875 C184.045766,3.87207031 188.275258,0 193.398305,0 C198.580922,0 202.810414,3.87207031 202.810414,9.0546875 C202.810414,14.2373047 198.580922,18.1689453 193.398305,18.1689453 Z" id="Path" fill="#333333" fill-rule="nonzero"></path>
        <path d="M1.61523438,90.9059791 L1.61523438,25.319065 L18.4140625,25.319065 L18.4140625,37.2331275 L18.7714844,37.2331275 C21.5712891,29.310276 28.7197266,24.36594 37.4765625,24.36594 C46.8886719,24.36594 53.5605469,29.1911354 55.7646484,37.7692604 L56.1220703,37.7692604 C59.1005859,29.5485572 66.9638672,24.36594 76.4951172,24.36594 C89.3623047,24.36594 98,33.122776 98,46.3473854 L98,90.9059791 L80.6054688,90.9059791 L80.6054688,50.6960182 C80.6054688,43.0114479 76.7333984,38.7819557 69.6445312,38.7819557 C62.7939453,38.7819557 58.2070312,43.7858619 58.2070312,51.232151 L58.2070312,90.9059791 L41.4082031,90.9059791 L41.4082031,50.0407447 C41.4082031,43.0114479 37.3574219,38.7819557 30.6259766,38.7819557 C23.7753906,38.7819557 19.0097656,44.0241432 19.0097656,51.4704322 L19.0097656,90.9059791 L1.61523438,90.9059791 Z" id="Path" fill="#333333" fill-rule="nonzero" transform="translate(49.807617, 57.635960) rotate(-360.000000) translate(-49.807617, -57.635960) "></path>
        <path d="M10.2646484,116.270237 C5.14160156,116.270237 0.912109375,112.338596 0.912109375,107.155979 C0.912109375,101.973362 5.14160156,98.1012916 10.2646484,98.1012916 C15.4472656,98.1012916 19.6767578,101.973362 19.6767578,107.155979 C19.6767578,112.338596 15.4472656,116.270237 10.2646484,116.270237 Z" id="Path" fill="#333333" fill-rule="nonzero" transform="translate(10.294434, 107.185764) rotate(-180.000000) translate(-10.294434, -107.185764) "></path>
    </g>
</svg>